<?xml version="1.0" encoding="utf-8"?>
<!-- Generator: Adobe Illustrator 25.1.0, SVG Export Plug-In . SVG Version: 6.00 Build 0)  -->
<svg version="1.1" id="Layer_1" xmlns="http://www.w3.org/2000/svg" xmlns:xlink="http://www.w3.org/1999/xlink" x="0px" y="0px"
	 viewBox="0 0 56.7 56.7" style="enable-background:new 0 0 56.7 56.7;" xml:space="preserve">
<style type="text/css">
	.st0{fill:#FFFFFF;}
</style>
<path class="st0" d="M-77.4,30.3H-85v-5c0-1.9,1.2-2.3,2.1-2.3c0.9,0,5.4,0,5.4,0v-8.3l-7.4,0c-8.2,0-10.1,6.2-10.1,10.1v5.5h-4.8
	v8.5h4.8c0,10.9,0,24.1,0,24.1h10c0,0,0-13.3,0-24.1h6.8L-77.4,30.3z"/>
<path class="st0" d="M54.1,9.5c-1.9,0.9-3.9,1.7-6.1,1.9c2.2-1.5,3.9-4,4.7-6.8c-2.1,1.5-4.3,2.5-6.7,3c-1.8-2.5-4.7-4-7.5-4
	c-5.8,0-10.6,5.5-10.6,12.5c0,0.9,0.2,1.9,0.3,2.8c-8.8-0.6-16.5-5.5-21.8-13.1c-1,1.9-1.4,4-1.4,6.2c0,4.4,1.9,8.1,4.7,10.4
	c-1.8,0-3.4-0.6-4.8-1.5v0.2c0,6.1,3.7,11,8.5,12.1c-1,0.2-1.8,0.4-2.7,0.4c-0.6,0-1.3,0-1.9-0.2c1.3,4.9,5.3,8.5,9.8,8.7
	c-3.5,3.4-8.2,5.3-13.2,5.3c-0.8,0-1.8,0-2.6-0.2C7.2,51,12.8,53,18.8,53c19.4,0,30-18.9,30-35.4c0-0.6,0-1.1,0-1.5
	C50.9,14.2,52.7,12,54.1,9.5z"/>
</svg>
