<?xml version="1.0" encoding="utf-8"?>
<!-- Generator: Adobe Illustrator 25.1.0, SVG Export Plug-In . SVG Version: 6.00 Build 0)  -->
<svg version="1.1" id="Layer_1" xmlns="http://www.w3.org/2000/svg" xmlns:xlink="http://www.w3.org/1999/xlink" x="0px" y="0px"
	 viewBox="0 0 56.7 56.7" style="enable-background:new 0 0 56.7 56.7;" xml:space="preserve">
<style type="text/css">
	.st0{fill:#FFFFFF;}
</style>
<path class="st0" d="M-113.8,25.4h-8.9v-5.9c0-2.2,1.5-2.7,2.5-2.7c1,0,6.3,0,6.3,0V7.2l-8.7,0c-9.6,0-11.8,7.2-11.8,11.8v6.4h-5.6
	v10h5.6c0,12.8,0,28.2,0,28.2h11.7c0,0,0-15.5,0-28.2h7.9L-113.8,25.4z"/>
<path class="st0" d="M-158.9,20c-1.9,0.9-3.9,1.7-6.1,1.9c2.2-1.5,3.9-4,4.7-6.8c-2.1,1.5-4.3,2.5-6.7,3c-1.8-2.5-4.7-4-7.5-4
	c-5.8,0-10.6,5.5-10.6,12.5c0,0.9,0.2,1.9,0.3,2.8c-8.8-0.6-16.5-5.5-21.8-13.1c-1,1.9-1.4,4-1.4,6.2c0,4.4,1.9,8.1,4.7,10.4
	c-1.8,0-3.4-0.6-4.8-1.5v0.2c0,6.1,3.7,11,8.5,12.1c-1,0.2-1.8,0.4-2.7,0.4c-0.6,0-1.3,0-1.9-0.2c1.3,4.9,5.3,8.5,9.8,8.7
	c-3.5,3.4-8.2,5.3-13.2,5.3c-0.8,0-1.8,0-2.6-0.2c4.7,3.6,10.3,5.7,16.2,5.7c19.4,0,30-18.9,30-35.4c0-0.6,0-1.1,0-1.5
	C-162.1,24.7-160.3,22.5-158.9,20z"/>
<path class="st0" d="M29.7,43.4c0-0.5,0-0.8-0.2-1.2c-0.2-0.3-0.2-0.8-0.3-1.1S29,40.5,28.8,40c-0.3-0.3-0.5-0.6-0.6-0.9
	s-0.5-0.5-0.8-0.9c-0.3-0.3-0.6-0.6-0.8-0.8c-0.2-0.2-0.5-0.5-0.9-0.8C25.3,36.3,25,36,24.8,36c-0.2,0-0.5-0.3-0.9-0.6
	c-0.5-0.3-0.8-0.6-0.9-0.6c-0.3,0-0.8,0-1.5,0c-1.1,0-2.1,0-3.1,0.2c-1.1,0.2-2.1,0.3-3.2,0.8c-1.1,0.3-2,0.8-2.9,1.4
	c-0.9,0.6-1.5,1.2-2,2.1c-0.5,0.9-0.8,2-0.8,3.2c0,1.4,0.3,2.6,1.1,3.5c0.8,1.1,1.7,1.8,2.8,2.5s2.3,1.1,3.5,1.4
	c1.2,0.3,2.5,0.5,3.7,0.5s2.3-0.2,3.4-0.3c1.1-0.3,2-0.6,2.9-1.2c0.9-0.5,1.7-1.2,2.1-2.1C29.4,45.7,29.7,44.6,29.7,43.4z
	 M26.2,17.9c0-1.2-0.2-2.5-0.5-3.8c-0.3-1.4-0.8-2.6-1.4-3.8S23,7.9,21.9,7.2c-1.1-0.8-2.3-1.2-3.5-1.2c-1.8,0-3.2,0.6-4.3,2
	s-1.5,2.9-1.5,4.9c0,0.9,0.2,1.8,0.3,2.9c0.2,1.1,0.6,2,1.1,3.1c0.5,1.1,1.1,2,1.7,2.8c0.6,0.8,1.4,1.5,2.3,2
	c0.9,0.5,1.8,0.8,2.9,0.8c1.8,0,3.2-0.6,4.1-1.8C25.7,21.4,26.2,19.9,26.2,17.9z M22.4,3.9h12.9l-4,2.3h-4c1.4,0.9,2.5,2.1,3.2,3.7
	s1.2,3.2,1.2,4.9c0,1.4-0.2,2.8-0.6,3.8c-0.5,1.1-1.1,2-1.7,2.8c-0.6,0.6-1.2,1.4-2,1.8c-0.6,0.6-1.2,1.2-1.7,1.8
	c-0.5,0.6-0.6,1.2-0.6,2c0,0.5,0.2,1.1,0.5,1.5c0.3,0.5,0.8,0.9,1.2,1.4c0.5,0.5,1.1,0.9,1.7,1.4c0.6,0.5,1.2,1.1,1.8,1.7
	c0.6,0.6,1.2,1.2,1.7,2c0.5,0.8,0.9,1.5,1.2,2.5c0.3,0.9,0.5,2,0.5,3.1c0,3.2-1.4,6-4.1,8.3c-2.9,2.6-7.1,3.8-12.4,3.8
	c-1.2,0-2.3-0.2-3.5-0.3c-1.2-0.2-2.5-0.5-3.5-0.9c-1.2-0.5-2.3-1.1-3.2-1.7c-0.9-0.6-1.7-1.5-2.3-2.6c-0.5-0.9-0.8-2-0.8-3.4
	c0-1.2,0.3-2.5,1.1-4c0.6-1.2,1.5-2.3,2.8-3.2c1.2-0.9,2.8-1.7,4.3-2.1c1.5-0.5,3.1-0.8,4.6-1.1c1.4-0.2,2.9-0.3,4.5-0.5
	c-1.2-1.7-1.8-3.1-1.8-4.5c0-0.3,0-0.5,0-0.8c0-0.2,0.2-0.5,0.2-0.6s0.2-0.3,0.3-0.6c0.2-0.3,0.2-0.5,0.2-0.6C19,26,18.2,26,17.8,26
	c-2.9,0-5.4-0.9-7.5-2.9s-3.1-4.3-3.1-7.2c0-2.8,0.9-5.2,2.8-7.4c1.8-2,4.1-3.4,6.9-4C18.7,4.1,20.5,3.9,22.4,3.9z M52.9,11.5v3.8
	h-7.5v7.5h-3.8v-7.5H34v-3.8h7.5V3.9h3.8v7.5H52.9z"/>
</svg>
